first trial
nRows=29
nColumns=38

# SIMM Motion File Header:
name Sujet_03_velo_80.mvnx
datacolumns 38
datarows 29
otherdata 1
range 7.8000 8.2670
endheader
time pelvis_tilt  pelvis_list  pelvis_rotation  pelvis_tx  pelvis_ty  pelvis_tz  hip_flexion_r  hip_adduction_r  hip_rotation_r  knee_angle_r  ankle_angle_r  subtalar_angle_r  mtp_angle_r  hip_flexion_l  hip_adduction_l  hip_rotation_l  knee_angle_l  ankle_angle_l  subtalar_angle_l  mtp_angle_l  lumbar_extension  lumbar_bending  lumbar_rotation  arm_flex_r  arm_add_r  arm_rot_r  elbow_flex_r  pro_sup_r  wrist_flex_r  wrist_dev_r  arm_flex_l  arm_add_l  arm_rot_l  elbow_flex_l  pro_sup_l  wrist_flex_l  wrist_dev_l
7.8000	-19.5757	-1.8176	-84.7982	0.0000	1.2500	-0.0000	67.5227	-2.7443	-4.2128	94.1691	2.4243	1.1346	0.0000	65.0361	-4.7211	-3.2038	57.0817	3.8762	-3.7172	-0.0000	-15.3354	0.7154	-1.4774	74.9247	6.8244	13.6379	-0.5942	69.8303	-21.1504	-15.9327	79.7541	-0.7835	18.2670	0.3514	74.7885	-27.4088	-15.5831	
7.8170	-19.6299	-2.1205	-85.2133	0.0000	1.2500	-0.0000	70.4204	-2.8865	-4.0507	97.8504	2.6078	1.1373	-0.0000	61.7771	-4.6471	-3.5094	52.9266	2.3889	-3.2779	0.0000	-15.3070	0.7763	-1.3324	74.9550	7.0026	13.5018	-0.6173	70.0771	-21.3010	-16.0264	79.5538	-0.5806	18.5384	0.1498	74.4030	-27.2745	-15.6321	
7.8330	-19.6859	-2.3795	-85.6877	0.0000	1.2500	-0.0000	73.3938	-3.0002	-4.0488	101.1587	2.5811	1.0167	-0.0000	58.5695	-4.6276	-3.5942	49.2463	1.1007	-3.0506	0.0000	-15.2702	0.7926	-1.1684	74.9695	7.2320	13.2790	-0.6626	70.3876	-21.4782	-16.1306	79.3101	-0.3466	18.9325	-0.1151	73.8934	-27.1248	-15.6969	
7.8500	-19.7559	-2.5810	-86.1507	0.0000	1.2500	-0.0000	76.2005	-3.0205	-4.2434	103.8204	3.0362	0.4813	-0.0000	55.7205	-4.6777	-3.4600	46.3683	0.0776	-2.9726	0.0000	-15.2290	0.7770	-1.0041	74.9741	7.4264	13.0541	-0.6963	70.6888	-21.6477	-16.2230	79.0597	-0.1409	19.1417	-0.3262	73.5610	-26.9984	-15.7515	
7.8670	-19.8507	-2.6997	-86.6141	0.0000	1.2500	-0.0000	78.8089	-2.9101	-4.7449	105.7825	4.4056	-0.6855	-0.0000	53.2984	-4.8284	-2.9325	44.3926	-0.6396	-3.1094	0.0000	-15.1754	0.7161	-0.8379	74.9663	7.5698	12.8037	-0.7149	71.0146	-21.8115	-16.2936	78.7719	0.0085	18.9669	-0.4375	73.5861	-26.9098	-15.7901	
7.8830	-19.9609	-2.7611	-87.0662	0.0000	1.2500	-0.0000	81.2473	-2.7281	-5.4498	107.1061	6.2555	-2.2802	-0.0000	51.2324	-5.0792	-2.1830	43.1945	-1.0870	-3.4023	0.0000	-15.1169	0.6234	-0.6713	74.9482	7.6784	12.5514	-0.7221	71.3312	-21.9676	-16.3523	78.4777	0.1307	18.6073	-0.4879	73.7913	-26.8444	-15.8188	
7.9000	-20.0686	-2.8274	-87.4002	0.0000	1.2500	-0.0000	83.3660	-2.5444	-6.0590	107.6893	7.9746	-3.9713	0.0000	49.6245	-5.3760	-1.7202	42.7831	-1.3156	-3.6112	-0.0000	-15.0815	0.5512	-0.5276	74.9330	7.7145	12.4518	-0.6915	71.4640	-22.0763	-16.4067	78.3077	0.2521	18.3519	-0.4816	73.9428	-26.7974	-15.8293	
7.9170	-20.1825	-2.9235	-87.5767	0.0000	1.2500	-0.0000	85.1840	-2.3383	-6.4751	107.4535	9.4409	-5.8217	-0.0000	48.5340	-5.6982	-1.6845	43.2359	-1.3172	-3.6220	0.0000	-15.0826	0.5156	-0.4106	74.9245	7.6359	12.6288	-0.5930	71.2736	-22.1042	-16.4552	78.3486	0.4021	18.3127	-0.4012	73.9577	-26.7725	-15.8158	
7.9330	-20.2941	-3.0238	-87.6351	0.0000	1.2500	-0.0000	86.6877	-2.1178	-6.7783	106.4734	10.7420	-7.7504	0.0000	47.9037	-6.0478	-1.9216	44.5057	-1.0998	-3.5572	0.0000	-15.1071	0.5002	-0.3167	74.9192	7.4839	12.9581	-0.4544	70.8993	-22.0843	-16.4990	78.5134	0.5504	18.3768	-0.2647	73.9194	-26.7659	-15.7843	
7.9500	-20.3588	-3.1135	-87.5879	0.0000	1.2500	-0.0000	87.6809	-1.9803	-6.9228	104.8706	11.6080	-9.2234	0.0000	47.6600	-6.3867	-2.4933	46.4400	-0.7391	-3.5362	-0.0000	-15.1440	0.5084	-0.2582	74.9184	7.3475	13.2224	-0.3354	70.5851	-22.0760	-16.5499	78.6728	0.6321	18.4941	-0.1303	73.8427	-26.7611	-15.7443	
7.9670	-20.3620	-3.2140	-87.3776	0.0000	1.2500	-0.0000	88.0922	-1.9893	-6.7386	102.6030	11.9265	-10.0748	0.0000	47.8150	-6.7156	-3.6109	49.0841	-0.2518	-3.6680	0.0000	-15.1942	0.5689	-0.2472	74.9153	7.2525	13.3410	-0.2447	70.4269	-22.1130	-16.6295	78.7705	0.6183	18.7284	-0.0005	73.6538	-26.7519	-15.6981	
7.9830	-20.3190	-3.3041	-87.0613	0.0000	1.2500	-0.0000	87.9905	-2.0717	-6.3897	99.7112	11.8395	-10.4746	-0.0000	48.3501	-7.0474	-5.0561	52.3977	0.3875	-3.8553	-0.0000	-15.2566	0.6536	-0.2713	74.9161	7.1739	13.3952	-0.1742	70.3288	-22.1616	-16.7160	78.8634	0.5380	19.0158	0.1270	73.4257	-26.7446	-15.6434	
8.0000	-20.2299	-3.3060	-86.8235	0.0000	1.2500	-0.0000	87.3911	-2.1215	-6.3322	96.4468	11.4919	-10.4143	0.0000	49.1501	-7.3615	-6.2472	56.0927	1.1603	-3.8964	-0.0000	-15.3183	0.6813	-0.3063	74.9416	7.1251	13.4118	-0.1586	70.2478	-22.1804	-16.7561	78.9937	0.4133	19.1141	0.2018	73.3924	-26.7403	-15.5837	
8.0170	-20.0709	-3.1735	-86.7410	0.0000	1.2500	-0.0000	86.2637	-2.1140	-6.8303	92.8449	10.8853	-9.7656	-0.0000	50.1906	-7.6081	-7.0783	60.1805	2.1600	-3.6733	0.0000	-15.3803	0.6148	-0.3493	75.0163	7.1176	13.3881	-0.2257	70.1677	-22.1459	-16.7155	79.2017	0.2191	18.8673	0.1858	73.7097	-26.7413	-15.5126	
8.0330	-19.8654	-2.9532	-86.7380	0.0000	1.2500	-0.0000	84.6408	-2.0607	-7.6183	88.8773	10.0445	-8.6703	0.0000	51.5003	-7.8459	-7.6542	64.6428	3.2859	-3.2893	0.0000	-15.4419	0.4909	-0.4035	75.1159	7.1397	13.3269	-0.3479	70.1048	-22.0816	-16.6284	79.4465	-0.0213	18.4332	0.1147	74.2213	-26.7454	-15.4364	
8.0500	-19.6830	-2.7057	-86.7676	0.0000	1.2500	-0.0000	82.6355	-1.9135	-8.3530	84.7019	9.1336	-7.5349	0.0000	53.0511	-8.1908	-7.7059	69.1605	4.2199	-2.8682	0.0000	-15.4880	0.3393	-0.4543	75.1877	7.1695	13.2630	-0.4766	70.0642	-22.0168	-16.5439	79.6485	-0.2109	18.0391	0.0508	74.6931	-26.7472	-15.3775	
8.0670	-19.5395	-2.4345	-86.8461	0.0000	1.2500	-0.0000	80.2156	-1.6249	-8.9837	80.3430	8.2838	-6.4941	0.0000	54.8536	-8.6752	-6.9791	73.7015	4.8734	-2.3690	0.0000	-15.5132	0.1521	-0.4960	75.2100	7.2002	13.1906	-0.5925	70.0837	-21.9746	-16.4817	79.7773	-0.3075	17.7012	0.0266	75.1018	-26.7373	-15.3438	
8.0830	-19.4197	-2.1362	-86.9570	0.0000	1.2500	-0.0000	77.4140	-1.2460	-9.5420	75.7699	7.3427	-5.4224	0.0000	56.9152	-9.2112	-5.7115	78.3126	5.3298	-1.8316	-0.0000	-15.5228	-0.0629	-0.5340	75.2044	7.2387	13.1155	-0.7143	70.1253	-21.9320	-16.4222	79.8640	-0.3521	17.4016	0.0116	75.4711	-26.7253	-15.3275	
8.1000	-19.3459	-1.8615	-87.0048	0.0000	1.2500	-0.0000	74.4421	-0.8983	-9.8219	71.0658	6.0436	-4.3274	-0.0000	59.2003	-9.7327	-4.3735	82.7977	5.5268	-1.4960	0.0000	-15.5186	-0.2528	-0.5710	75.1832	7.2837	13.0900	-0.8513	70.0804	-21.8496	-16.3552	79.9209	-0.3698	17.3152	-0.0241	75.6368	-26.7346	-15.3277	
8.1170	-19.3422	-1.6180	-86.9676	0.0000	1.2500	-0.0000	71.2715	-0.6422	-9.7434	66.0551	4.1882	-3.1209	-0.0000	61.7482	-10.2653	-2.9892	87.1591	5.2911	-1.4611	0.0000	-15.4963	-0.4096	-0.6021	75.1532	7.3563	13.1844	-1.0115	69.8395	-21.6919	-16.2630	79.9336	-0.3736	17.6191	-0.1045	75.4298	-26.7766	-15.3521	
8.1330	-19.3836	-1.3982	-86.8666	0.0000	1.2500	-0.0000	67.9266	-0.4545	-9.4030	60.9261	1.9789	-1.8804	-0.0000	64.5260	-10.7578	-1.5332	91.3995	4.7958	-1.6002	0.0000	-15.4606	-0.5414	-0.6325	75.1073	7.4356	13.3286	-1.1900	69.5104	-21.4943	-16.1632	79.9156	-0.3500	18.1359	-0.2036	75.0193	-26.8399	-15.3930	
8.1500	-19.4166	-1.2291	-86.6710	0.0000	1.2500	-0.0000	64.6969	-0.3263	-8.8783	56.3127	-0.2467	-0.8553	-0.0000	67.3691	-11.0783	-0.4219	95.2920	4.5024	-1.8311	0.0000	-15.4274	-0.6186	-0.6795	75.0380	7.4574	13.3638	-1.3738	69.3120	-21.3242	-16.0982	79.9207	-0.2837	18.5083	-0.2789	74.7486	-26.9139	-15.4266	
8.1670	-19.4191	-1.1368	-86.3375	0.0000	1.2500	-0.0000	61.6215	-0.2862	-8.0796	52.3586	-2.5138	-0.0942	-0.0000	70.2665	-11.2155	0.1654	98.8222	4.5851	-2.1682	-0.0000	-15.4040	-0.6145	-0.7496	74.9457	7.3781	13.1715	-1.5811	69.3821	-21.2067	-16.0904	79.9965	-0.1545	18.5786	-0.3267	74.7731	-27.0003	-15.4457	
8.1830	-19.4134	-1.0955	-85.9097	0.0000	1.2500	-0.0000	58.6587	-0.3132	-7.1138	48.9085	-4.8013	0.4558	-0.0000	73.2093	-11.2215	0.3738	101.9607	4.8813	-2.6255	0.0000	-15.3826	-0.5560	-0.8365	74.8295	7.2417	12.8703	-1.7897	69.5845	-21.1170	-16.1179	80.0957	0.0176	18.5045	-0.3536	74.9371	-27.0973	-15.4576	
8.2000	-19.4125	-1.0556	-85.4891	0.0000	1.2500	-0.0000	55.9785	-0.2885	-6.3394	46.1551	-6.7036	0.7023	0.0000	76.0259	-11.0970	0.2672	104.4528	5.3443	-3.1439	0.0000	-15.3570	-0.4941	-0.9379	74.6801	7.1158	12.6566	-1.9242	69.7270	-21.0467	-16.1571	80.1298	0.1874	18.4028	-0.3353	75.1163	-27.1892	-15.4606	
8.2170	-19.4131	-1.0074	-85.0734	0.0000	1.2500	-0.0000	53.5978	-0.1136	-5.8483	44.1659	-8.1097	0.5152	-0.0000	78.7137	-10.8191	-0.2766	106.2332	6.0502	-3.7242	-0.0000	-15.3221	-0.4334	-1.0648	74.4663	7.0154	12.6117	-1.9442	69.7357	-20.9978	-16.2073	80.0408	0.3430	18.2686	-0.2484	75.3081	-27.2747	-15.4498	
8.2330	-19.4184	-0.9605	-84.6647	0.0000	1.2500	-0.0000	51.5028	0.1464	-5.5312	42.8843	-9.1227	0.0357	-0.0000	81.2705	-10.4615	-1.1501	107.3912	6.9116	-4.3640	-0.0000	-15.2830	-0.3695	-1.2063	74.2200	6.9256	12.6543	-1.8910	69.6846	-20.9685	-16.2692	79.8866	0.4960	18.1072	-0.1171	75.5150	-27.3549	-15.4299	
8.2500	-19.4510	-0.8929	-84.3709	0.0000	1.2500	-0.0000	49.8207	0.3772	-5.4360	42.3294	-9.6588	-0.4468	0.0000	83.5340	-10.1462	-1.9189	107.9057	7.6377	-5.0028	0.0000	-15.2495	-0.3397	-1.3269	74.0279	6.8690	12.7365	-1.8121	69.6028	-20.9449	-16.3204	79.7523	0.6375	18.0505	0.0143	75.6208	-27.4179	-15.4140	
8.2670	-19.5256	-0.7907	-84.2572	0.0000	1.2500	-0.0000	48.5864	0.5653	-5.7048	42.5147	-9.6463	-0.8861	0.0000	85.5257	-9.8859	-2.4954	107.7334	8.1478	-5.7131	0.0000	-15.2240	-0.3678	-1.4106	73.9241	6.8510	12.8601	-1.7146	69.4850	-20.9257	-16.3547	79.6597	0.7736	18.1779	0.1369	75.5601	-27.4551	-15.4062	
